<?xml version="1.0"?>
<svg width="128" height="128" viewBox="0 10 64 46" xmlns="http://www.w3.org/2000/svg">

    <path fill="red" stroke="blue" stroke-width=".5px" d="m62 32.252l-.047-.105c-.045-.353-.146-.574-.335-.723c-1.213-2.565-5.233-10.563-10.638-16.047c-1.496-1.519-5.822 1.914-7.828 3.969c-2.006 2.055-1.029 5.529.182 4.134c1.498-1.725 5.268-7.137 6.666-6.452c1.381.676 4.977 5.914 8.988 13.905c-1.49-.103-4.142-.201-7.242-.201c-4.498 0-8.086.644-11.621 1.265c-3.506.614-5.842 1.047-8.125 1.047c-2.285 0-4.619-.433-8.125-1.047c-3.537-.621-7.123-1.265-11.621-1.265c-3.1 0-5.751.098-7.242.2c4.01-7.99 7.607-13.229 8.988-13.904c1.398-.685 5.166 4.727 6.664 6.452c1.211 1.396 2.189-2.079.182-4.134c-2.006-2.055-6.33-5.488-7.828-3.969C7.615 20.86 3.596 28.859 2.383 31.424c-.189.148-.291.371-.336.723L2 32.252l.031-.011C2 32.565 2 32.988 2 33.551c0 3.338.383 3.919.545 4.117c.219.27.834.643 1.033.928c.293.418.398 1.709.539 2.454C5.234 46.954 6.775 49 15.566 49c8.184 0 12.217-2.43 13.756-8.432c.115-.448.318-2.367.443-2.813c.049-.176.211-.439.637-.505c.568-.054 1.086-.079 1.598-.079s1.027.025 1.598.079c.424.065.588.329.637.505c.123.446.328 2.365.443 2.813C36.217 46.57 40.25 49 48.434 49c8.791 0 10.332-2.046 11.447-7.95c.141-.745.248-2.036.541-2.454c.199-.285.813-.658 1.033-.928c.162-.198.545-.779.545-4.117c0-.563 0-.985-.031-1.31l.031.011m-34.178 6.026a39.419 39.419 0 0 1-.432 1.763c-1.102 4.158-3.535 6.93-11.824 6.93c-8.033 0-8.746-1.676-9.502-6.383c-.281-1.757-.887-3.701-.195-5.334c.385-.908 1.047-2.183 3.371-2.183c1.697 0 10.094.111 15.256 1.223c1.506.327 3.957.893 3.326 3.984m30.112 2.31c-.756 4.707-1.467 6.383-9.5 6.383c-8.291 0-10.723-2.771-11.824-6.93a45.954 45.954 0 0 1-.434-1.763c-.629-3.092 1.822-3.657 3.328-3.984c5.162-1.111 13.559-1.223 15.256-1.223c2.322 0 2.986 1.274 3.369 2.183c.693 1.633.088 3.577-.195 5.334"/>

    <path fill="black" d="
M61.5 31.5
c-1 -2.5 -5 -10.5 -10.6 -16
c-1.5 -1.5 -6 2 -8 4
c-2 2 -1 5.5 .2 4
c1.5 -1.5 5 -7 6.5 -6.5
c1.5 .5 5 6 9 14
c-1.5 0 -4 0 -7.25 -.25
c-4.5 0 -8 .5 -11.5 1.25
c-3.5 .5 -6 1 -8 1
c-2 0 -4.5 -.5 -8 -1
c-3.5 -.5 -7 -1 -11.5 -1.25
c-3 0 -5.5 0 -7.25 .25
c4 -8 7.5 -13.5 9 -14
c1.5 -.5 5 5 6.5 6.5
c1 1.5 2 -2 .2 -4
c-2 -2 -6.5 -5.5 -8 -4
C7.5 21 3.5 29 2.4 31.5

C2 32.5 2 33 2 33.5
c0 3.5 .5 4 .5 4
c0 0 1 .5 1 1
c0 0 .5 2 .5 2.5
C5 47 6.5 49 15.5 49
c8 0 12 -2 14 -8.4
c0 -.5 .5 -2.5 .5 -2.5
c0 0 0 -.5 .5 -.5
c.5 0 1 0 1.5 0
s1 0 1.5 0
c.5 0 .5 .5 .5 .5
c0 .5 .5 2.5 .5 2.5
C36 46.5 40 49 48.5 49
c9 0 10 -2 11.4 -8
c0 0 .25 -2 .5 -2.5
c0 0 1 -.5 1 -1
c0 0 .5 -.5 .5 -4
c0 -.5 0 -1 0 -1.3

m-34 6
a8 8 0 0 1 -.5 1.75
c-1 4 -4 7 -11.75 7
c-8 0 -9 -2 -9.5 -6.5
c-.5 -1.5 -1 -3.5 -.2 -5.3
c.5 -1 1 -2 3.3 -2.2
c2 0 10 0 15.3 1.2
c1.5 .5 4 1 3.33 4

m30 2.5
c-.5 4.5 -1.5 6.5 -9.5 6.5
c-8 0 -11 -3 -11.75 -7
a8 8 0 0 1 -.5 -1.75
c-.5 -3 2 -3.5 3.33 -4
c5 -1 13 -1 15.3 -1.2
c2.5 0 3 1 3.3 2.2
c.5 1.5 0 3.5 -.2 5.3
Z"/>

</svg>
